<?xml version="1.0" encoding="UTF-8"?>
<!DOCTYPE svg PUBLIC "-//W3C//DTD SVG 1.1//EN" "http://www.w3.org/Graphics/SVG/1.1/DTD/svg11.dtd">
<!-- Creator: CorelDRAW -->
<svg xmlns="http://www.w3.org/2000/svg" xml:space="preserve" width="10mm" version="1.1" style="shape-rendering:geometricPrecision; text-rendering:geometricPrecision; image-rendering:optimizeQuality; fill-rule:evenodd; clip-rule:evenodd"
viewBox="0 0 8700000 7500000"
 xmlns:xlink="http://www.w3.org/1999/xlink"
 xmlns:xodm="http://www.corel.com/coreldraw/odm/2003">
 <defs>
 </defs>
 <g id="Camada_x0020_1">
  <metadata id="CorelCorpID_0Corel-Layer"/>
  <path  fill='#dc2626' d="M497130 4008330l-504260 0 0 500000 0 500000 0 500000 504260 0 1216980 0 -135130 -500000 -1081850 0 0 -500000 950250 0 -135120 -500000 -815130 0zm0 -4000000l1891640 7000000 -1250 0 135110 500000 1250 0 522050 0 530190 0 522050 0 3490 0 -135120 -500000 -3480 0 -1891620 -7000000 -522070 0 1891640 7000000 -530190 0 -1891630 -7000000 -522060 0zm2787180 3500000l3139380 0c696240,0 1260660,-559650 1260660,-1250000 0,-690350 -564420,-1250000 -1260660,-1250000l-3295470 0 -135120 -500000 3430590 0 0 200c5290,-50 10540,-200 15840,-200 974740,0 1764910,783500 1764910,1750000 0,966500 -790170,1750000 -1764910,1750000 -5300,0 -10550,-150 -15840,-200l0 200 -3010290 0 135110 500000 2875180 0c1253230,0 2269180,-1007360 2269180,-2250000 0,-1242640 -1015950,-2250000 -2269180,-2250000l-3565710 0 -522060 0 -3460 0 135110 500000 3470 0 135110 500000 -2770 0 135110 500000 2780 0 522060 0 3160360 0c417740,0 756400,335790 756400,750000 0,414210 -338660,750000 -756400,750000l-3274490 0 135110 500000z"/>
 </g>
</svg>
